<svg width="147" height="82" viewBox="0 0 147 82" fill="none" xmlns="http://www.w3.org/2000/svg">
<rect x="17.0714" y="17" width="119" height="54" rx="6.5" stroke="#BFC200"/>
<rect x="10.9286" y="11" width="119" height="54" rx="6.5" stroke="#BFC200"/>
<path d="M39.5201 40.82C40.0267 40.9 40.4867 41.1067 40.9001 41.44C41.3267 41.7733 41.6601 42.1867 41.9001 42.68C42.1534 43.1733 42.2801 43.7 42.2801 44.26C42.2801 44.9667 42.1001 45.6067 41.7401 46.18C41.3801 46.74 40.8534 47.1867 40.1601 47.52C39.4801 47.84 38.6734 48 37.7401 48H32.5401V34.06H37.5401C38.4867 34.06 39.2934 34.22 39.9601 34.54C40.6267 34.8467 41.1267 35.2667 41.4601 35.8C41.7934 36.3333 41.9601 36.9333 41.9601 37.6C41.9601 38.4267 41.7334 39.1133 41.2801 39.66C40.8401 40.1933 40.2534 40.58 39.5201 40.82ZM34.3601 40.08H37.4201C38.2734 40.08 38.9334 39.88 39.4001 39.48C39.8667 39.08 40.1001 38.5267 40.1001 37.82C40.1001 37.1133 39.8667 36.56 39.4001 36.16C38.9334 35.76 38.2601 35.56 37.3801 35.56H34.3601V40.08ZM37.5801 46.5C38.4867 46.5 39.1934 46.2867 39.7001 45.86C40.2067 45.4333 40.4601 44.84 40.4601 44.08C40.4601 43.3067 40.1934 42.7 39.6601 42.26C39.1267 41.8067 38.4134 41.58 37.5201 41.58H34.3601V46.5H37.5801ZM54.5257 37.04V48H52.7057V46.38C52.359 46.94 51.8724 47.38 51.2457 47.7C50.6324 48.0067 49.9524 48.16 49.2057 48.16C48.3524 48.16 47.5857 47.9867 46.9057 47.64C46.2257 47.28 45.6857 46.7467 45.2857 46.04C44.899 45.3333 44.7057 44.4733 44.7057 43.46V37.04H46.5057V43.22C46.5057 44.3 46.779 45.1333 47.3257 45.72C47.8724 46.2933 48.619 46.58 49.5657 46.58C50.539 46.58 51.3057 46.28 51.8657 45.68C52.4257 45.08 52.7057 44.2067 52.7057 43.06V37.04H54.5257ZM67.0387 37.04L60.4387 53.16H58.5587L60.7187 47.88L56.2987 37.04H58.3187L61.7587 45.92L65.1587 37.04H67.0387ZM85.1602 48H83.3402L76.0202 36.9V48H74.2002V34.04H76.0202L83.3402 45.12V34.04H85.1602V48ZM93.0427 48.18C92.0161 48.18 91.0827 47.9467 90.2427 47.48C89.4161 47.0133 88.7627 46.3533 88.2827 45.5C87.8161 44.6333 87.5827 43.6333 87.5827 42.5C87.5827 41.38 87.8227 40.3933 88.3027 39.54C88.7961 38.6733 89.4627 38.0133 90.3027 37.56C91.1427 37.0933 92.0827 36.86 93.1227 36.86C94.1627 36.86 95.1027 37.0933 95.9427 37.56C96.7827 38.0133 97.4427 38.6667 97.9227 39.52C98.4161 40.3733 98.6627 41.3667 98.6627 42.5C98.6627 43.6333 98.4094 44.6333 97.9027 45.5C97.4094 46.3533 96.7361 47.0133 95.8827 47.48C95.0294 47.9467 94.0827 48.18 93.0427 48.18ZM93.0427 46.58C93.6961 46.58 94.3094 46.4267 94.8827 46.12C95.4561 45.8133 95.9161 45.3533 96.2627 44.74C96.6227 44.1267 96.8027 43.38 96.8027 42.5C96.8027 41.62 96.6294 40.8733 96.2827 40.26C95.9361 39.6467 95.4827 39.1933 94.9227 38.9C94.3627 38.5933 93.7561 38.44 93.1027 38.44C92.4361 38.44 91.8227 38.5933 91.2627 38.9C90.7161 39.1933 90.2761 39.6467 89.9427 40.26C89.6094 40.8733 89.4427 41.62 89.4427 42.5C89.4427 43.3933 89.6027 44.1467 89.9227 44.76C90.2561 45.3733 90.6961 45.8333 91.2427 46.14C91.7894 46.4333 92.3894 46.58 93.0427 46.58ZM115.656 37.04L112.236 48H110.356L107.716 39.3L105.076 48H103.196L99.7557 37.04H101.616L104.136 46.24L106.856 37.04H108.716L111.376 46.26L113.856 37.04H115.656Z" fill="#BFC200"/>
</svg>
